<svg width="22" height="24" viewBox="0 0 22 24" fill="none" xmlns="http://www.w3.org/2000/svg">
<path d="M14.0938 12C14.0938 13.8656 12.7102 15.375 11 15.375C9.28984 15.375 7.90625 13.8656 7.90625 12C7.90625 10.1344 9.28984 8.625 11 8.625C12.7102 8.625 14.0938 10.1344 14.0938 12ZM18.5625 8.625C16.8523 8.625 15.4688 10.1344 15.4688 12C15.4688 13.8656 16.8523 15.375 18.5625 15.375C20.2727 15.375 21.6562 13.8656 21.6562 12C21.6562 10.1344 20.2727 8.625 18.5625 8.625ZM3.4375 8.625C1.72734 8.625 0.34375 10.1344 0.34375 12C0.34375 13.8656 1.72734 15.375 3.4375 15.375C5.14766 15.375 6.53125 13.8656 6.53125 12C6.53125 10.1344 5.14766 8.625 3.4375 8.625Z" fill="#8B99AA"/>
</svg>
